<?xml version="1.0" encoding="UTF-8" standalone="no"?>
<!DOCTYPE svg PUBLIC "-//W3C//DTD SVG 1.1//EN" "http://www.w3.org/Graphics/SVG/1.1/DTD/svg11.dtd">
<svg width="100%" height="100%" viewBox="0 0 89 89" version="1.1" xmlns="http://www.w3.org/2000/svg" xmlns:xlink="http://www.w3.org/1999/xlink" xml:space="preserve" xmlns:serif="http://www.serif.com/" style="fill-rule:evenodd;clip-rule:evenodd;stroke-linejoin:round;stroke-miterlimit:2;">
    <g transform="matrix(1,0,0,1,-671.66282,-1610.870176)">
        <g transform="matrix(0.965233,0,0,0.965233,447.874655,103.064965)">
            <g transform="matrix(0.054221,0,0,0.054221,196.273724,1526.491519)">
                <path d="M1498.99,1710.59C1382.58,1710.59 1288.29,1616.3 1288.29,1499.89C1288.29,1383.49 1382.58,1289.2 1498.99,1289.2C1615.4,1289.2 1709.68,1383.49 1709.68,1499.89C1709.68,1555.73 1687.56,1609.46 1647.95,1648.86C1608.55,1688.47 1554.82,1710.59 1498.99,1710.59ZM1498.99,1078.5C1266.17,1078.5 1077.59,1267.08 1077.59,1499.89C1077.59,1732.72 1266.17,1921.29 1498.99,1921.29C1731.81,1921.29 1920.38,1732.72 1920.38,1499.89C1920.38,1388.23 1876.13,1280.98 1796.91,1201.97C1717.9,1122.96 1610.66,1078.5 1498.99,1078.5ZM2337.56,1729.13L2254.02,1930.35C2242.64,1957.95 2211.25,1970.91 2183.96,1959.63L2088.94,1920.34C2045.53,1902.43 1982.85,1915.08 1949.88,1948.05C1913.74,1984.29 1901.42,2046.44 1919.33,2089.95L1958.73,2184.77C1970.11,2212.15 1957.67,2243.34 1929.65,2254.92L1728.44,2338.58C1701.05,2349.95 1669.65,2336.89 1658.38,2309.5L1618.98,2214.37C1600.86,2170.96 1547.34,2135.67 1500.99,2135.67C1449.79,2135.67 1397.01,2170.86 1378.78,2214.47L1339.49,2309.71C1328.22,2337.1 1297.35,2350.37 1269.33,2338.78L1068.11,2255.56C1040.72,2243.97 1027.55,2212.68 1038.93,2185.4L1078.23,2090.581C1096.14,2047.08 1083.49,1984.39 1050.42,1951.52C1014.28,1915.28 952.124,1902.85 908.616,1920.97L813.591,1960.27C786.201,1971.65 755.123,1959.21 743.535,1931.09L660.309,1729.45C648.931,1702.06 661.995,1670.46 689.387,1659.18L784.516,1619.78C827.92,1601.66 863.211,1548.46 863.211,1502.11C863.211,1451.01 828.024,1398.44 784.412,1380.32L689.387,1340.82C661.997,1329.55 648.722,1298.68 660.309,1270.65L743.85,1069.44C755.228,1041.84 786.621,1028.78 813.906,1039.95L908.719,1079.24C952.229,1097.15 1014.91,1084.51 1047.78,1051.42C1084.02,1015.29 1096.45,953.136 1078.33,909.625L1039.14,814.815C1027.76,787.424 1040.189,756.245 1068.22,744.651L1269.43,661.429C1296.82,650.048 1328.22,663.113 1339.49,690.505L1378.89,785.629C1397.01,829.038 1450.53,864.326 1496.88,864.326C1548.08,864.326 1600.86,829.141 1619.08,785.527L1658.38,690.293C1669.65,662.901 1700.52,649.63 1728.54,661.217L1929.75,744.439C1957.14,756.026 1970.31,787.321 1958.93,814.603L1919.96,908.892C1901.84,952.821 1914.48,1015.71 1947.35,1048.58C1983.59,1084.83 2045.53,1097.36 2089.879,1078.93L2184.28,1039.95C2211.67,1028.36 2242.74,1041 2254.33,1069.02L2337.56,1270.66C2348.94,1298.04 2335.87,1329.65 2308.48,1340.93L2213.35,1380.32C2169.95,1398.45 2134.66,1451.65 2134.66,1498C2134.66,1549.1 2169.84,1601.66 2213.45,1619.78L2308.69,1659.07C2336.08,1670.35 2349.35,1701.22 2337.77,1729.24L2337.56,1729.13Z" style="fill:rgb(248,244,232);"/>
            </g>
        </g>
    </g>
</svg>
